<svg width="111" height="85" viewBox="0 0 111 85" fill="none" xmlns="http://www.w3.org/2000/svg">
<path d="M57.062 78.7749C56.0625 79.8889 54.3147 79.8809 53.3254 78.7578L5.98665 25.0237C4.99538 23.8985 5.23159 22.1922 6.43049 21.393C25.2865 8.82249 40.2306 2.83443 55.0976 2.86548C69.9789 2.89657 85.2273 8.9581 104.692 21.4977C105.928 22.2943 106.175 24.0389 105.157 25.1735L57.062 78.7749Z" stroke="#123E89" stroke-width="5"/>
<path d="M95.1734 25.6836C95.7874 24.9636 96.8675 24.8792 97.5859 25.4951C98.3043 26.1111 98.3889 27.1941 97.7749 27.9142L96.1056 29.8717C95.4916 30.5917 94.4114 30.6761 93.6931 30.0602C92.9747 29.4442 92.8901 28.3612 93.5041 27.6411L95.1734 25.6836Z" fill="#123E89"/>
<path d="M89.8088 31.6711C90.4228 30.951 91.5029 30.8666 92.2213 31.4826C92.9397 32.0985 93.0243 33.1816 92.4103 33.9016L90.741 35.8592C90.1269 36.5792 89.0468 36.6636 88.3284 36.0476C87.6101 35.4317 87.5255 34.3487 88.1395 33.6286L89.8088 31.6711Z" fill="#123E89"/>
<path d="M84.4439 37.6585C85.0579 36.9385 86.138 36.8541 86.8564 37.47C87.5748 38.086 87.6594 39.169 87.0454 39.8891L85.3761 41.8466C84.7621 42.5667 83.682 42.651 82.9636 42.0351C82.2452 41.4191 82.1606 40.3361 82.7746 39.6161L84.4439 37.6585Z" fill="#123E89"/>
<path d="M79.0792 43.646C79.6932 42.9259 80.7733 42.8415 81.4917 43.4575C82.21 44.0734 82.2947 45.1565 81.6806 45.8765L80.0113 47.8341C79.3973 48.5541 78.3172 48.6385 77.5988 48.0225C76.8804 47.4066 76.7958 46.3236 77.4098 45.6035L79.0792 43.646Z" fill="#123E89"/>
<path d="M73.7145 49.6334C74.3285 48.9134 75.4087 48.829 76.127 49.4449C76.8454 50.0609 76.93 51.1439 76.316 51.864L74.6467 53.8215C74.0327 54.5416 72.9526 54.626 72.2342 54.01C71.5158 53.394 71.4312 52.311 72.0452 51.591L73.7145 49.6334Z" fill="#123E89"/>
<path d="M68.3498 55.6209C68.9638 54.9008 70.0439 54.8165 70.7623 55.4324C71.4807 56.0484 71.5653 57.1314 70.9513 57.8514L69.282 59.809C68.668 60.529 67.5878 60.6134 66.8695 59.9975C66.1511 59.3815 66.0665 58.2985 66.6805 57.5784L68.3498 55.6209Z" fill="#123E89"/>
<path d="M62.9852 61.6083C63.5992 60.8883 64.6793 60.8039 65.3977 61.4199C66.1161 62.0358 66.2007 63.1189 65.5866 63.8389L63.9173 65.7965C63.3033 66.5165 62.2232 66.6009 61.5048 65.9849C60.7865 65.369 60.7018 64.2859 61.3159 63.5659L62.9852 61.6083Z" fill="#123E89"/>
<path d="M57.6203 67.5958C58.2343 66.8758 59.3144 66.7914 60.0328 67.4073C60.7512 68.0233 60.8358 69.1063 60.2218 69.8264L58.5525 71.7839C57.9385 72.504 56.8583 72.5883 56.14 71.9724C55.4216 71.3564 55.337 70.2734 55.951 69.5534L57.6203 67.5958Z" fill="#123E89"/>
</svg>
